<svg width="64" height="64" viewBox="0 0 64 64" fill="none" xmlns="http://www.w3.org/2000/svg">
<path d="M4 48.0212C8.16704 45.826 11.3986 43.2084 13.6948 40.1688C16.0759 37.0448 17.4366 33.372 17.7768 29.1504C16.8413 29.4881 15.8208 29.657 14.7153 29.657C11.7388 29.657 9.2726 28.7282 7.31664 26.8707C5.36068 24.9288 4.38268 22.438 4.38268 19.3984C4.38268 15.9367 5.4032 13.1926 7.4442 11.1662C9.4852 9.0554 12.079 8 15.2255 8C19.3075 8 22.5391 9.60424 24.9203 12.8127C27.3014 15.9367 28.492 20.285 28.492 25.8575C28.492 32.4433 26.7487 38.3114 23.262 43.4616C19.8603 48.612 14.8428 52.7916 8.20956 56L4 48.0212ZM35.508 48.0212C39.675 45.826 42.9068 43.2084 45.2028 40.1688C47.584 37.0448 48.9444 33.372 49.2848 29.1504C48.3492 29.4881 47.3288 29.657 46.2232 29.657C43.2468 29.657 40.7804 28.7282 38.8246 26.8707C36.8686 24.9288 35.8907 22.438 35.8907 19.3984C35.8907 15.9367 36.9112 13.1926 38.9522 11.1662C40.9932 9.0554 43.5868 8 46.7336 8C50.8156 8 54.0472 9.60424 56.4284 12.8127C58.8096 15.9367 60 20.285 60 25.8575C60 32.4433 58.2568 38.3114 54.77 43.4616C51.3684 48.612 46.3508 52.7916 39.7175 56L35.508 48.0212Z" fill="#5173C9" stroke="#5173C9" stroke-width="4"/>
</svg>
